<svg xmlns="http://www.w3.org/2000/svg" xmlns:xlink="http://www.w3.org/1999/xlink" version="1.1" id="Art" x="0px" y="0px" width="575.999939px" height="162.0000305px" viewBox="0 0 575.999939 162.0000305" style="enable-background:new 0 0 575.999939 162.0000305;" xml:space="preserve">
<style type="text/css">
	.st0{fill:url(#Ellipse_00000164477965098600031150000005343326045911920517_);}
	.st1{fill:url(#Ellipse_00000014599685853699750450000009664264846120523913_);}
	.st2{fill:url(#Ellipse_00000030486981599673590390000011035500614915940269_);}
</style>
<g id="Logo">
	<g id="Symbol_00000109013871952259166970000008835684732003123584_">
		
			<linearGradient id="Ellipse_00000062897007109305883140000002931302948371325865_" gradientUnits="userSpaceOnUse" x1="1122.7016602" y1="-970.3664551" x2="1318.8192139" y2="-1049.6555176" gradientTransform="matrix(0.8385648 -0.6027709 0.6728938 0.9361187 165.3106232 1727.4233398)">
			<stop offset="0" style="stop-color:#FF00B3"/>
			<stop offset="0.1308368" style="stop-color:#FF1F90"/>
			<stop offset="0.3441836" style="stop-color:#FF4B5D"/>
			<stop offset="0.5449547" style="stop-color:#FF6F35"/>
			<stop offset="0.7272121" style="stop-color:#FF8818"/>
			<stop offset="0.8848671" style="stop-color:#FF9806"/>
			<stop offset="1" style="stop-color:#FF9D00"/>
		</linearGradient>
		
			<path id="Ellipse_00000137127585843052825280000000192638310687686816_" style="fill:url(#Ellipse_00000062897007109305883140000002931302948371325865_);" d="    M497.3366089,91.7998886c19.6484375,27.3346252,24.5883789,57.3922653,11.0335999,67.1356125    s-40.471344-4.5172119-60.119812-31.8518295s-24.5883789-57.3922577-11.0335999-67.1356049    S477.6881409,64.465271,497.3366089,91.7998886z"/>
		
			<linearGradient id="Ellipse_00000092428179287602349710000004496723867621136265_" gradientUnits="userSpaceOnUse" x1="475.0007019" y1="1197.3674316" x2="487.4143982" y2="1043.8499756" gradientTransform="matrix(0.8314871 0.4058621 -0.4714266 0.9658087 668.1411133 -1210.3497314)">
			<stop offset="0.06" style="stop-color:#FF00B3"/>
			<stop offset="0.1829866" style="stop-color:#FF1F90"/>
			<stop offset="0.3835326" style="stop-color:#FF4B5D"/>
			<stop offset="0.5722574" style="stop-color:#FF6F35"/>
			<stop offset="0.7435794" style="stop-color:#FF8818"/>
			<stop offset="0.8917751" style="stop-color:#FF9806"/>
			<stop offset="1" style="stop-color:#FF9D00"/>
		</linearGradient>
		
			<path id="Ellipse_00000025411038321171821370000014494163905194746496_" style="fill:url(#Ellipse_00000092428179287602349710000004496723867621136265_);" d="    M558.1287842,60.7847176c-14.8308105,30.3838234-31.8913574,52.5557823-38.1057129,49.5224495    s0.7706909-30.123291,15.6015015-60.5071106s31.8913574-52.5557823,38.1057129-49.5224533    S572.9595947,30.4008923,558.1287842,60.7847176z"/>
		
			<linearGradient id="Ellipse_00000098899588649913463110000000853472909585639829_" gradientUnits="userSpaceOnUse" x1="583.324646" y1="-426.7283936" x2="727.59552" y2="-628.2396851" gradientTransform="matrix(1.0172504 -0.1914443 0.1595859 0.847969 -97.3867264 592.6530151)">
			<stop offset="0" style="stop-color:#FF00B3"/>
			<stop offset="0.078128" style="stop-color:#FF05AD"/>
			<stop offset="0.1804339" style="stop-color:#FF139D"/>
			<stop offset="0.2961493" style="stop-color:#FF2B82"/>
			<stop offset="0.4217421" style="stop-color:#FF4C5C"/>
			<stop offset="0.553779" style="stop-color:#FF762C"/>
			<stop offset="0.66" style="stop-color:#FF9D00"/>
		</linearGradient>
		<path id="Ellipse" style="fill:url(#Ellipse_00000098899588649913463110000000853472909585639829_);" d="M543.3580322,11.5724154    c1.8029785,9.5800161-23.5383301,22.3903961-56.6013489,28.6127815s-61.3274536,3.5004883-63.1303711-6.0795288    c-1.802948-9.5800171,23.5383301-22.3903942,56.6013489-28.6127796S541.5551147,1.992399,543.3580322,11.5724154z"/>
	</g>
	<path id="Wordmark_00000085221299969213036390000003169044942947024522_" d="M97.7521362,17.5651245   c6.4664688,0,11.030777,4.5643063,11.030777,11.030777v123.9967804H86.7218475V93.0665665H22.0610657v59.5261154H0V28.5959015   c0-6.4664707,4.5643077-11.030777,11.030777-11.030777c6.4659805,0,11.0302887,4.5643063,11.0302887,11.030777v45.4524689   h64.6607819V28.5959015C86.7218475,22.1294308,91.2861557,17.5651245,97.7521362,17.5651245z M142.0634308,17.5651245   c4.373703,0,7.9874268,1.9021606,10.6500549,6.2758617l41.6491241,66.1827011l41.6491241-66.1827011   c2.6626434-4.3737011,6.2763519-6.2758617,10.6500549-6.2758617c6.4664612,0,11.2209015,4.5643063,11.2209015,11.030777   v123.9967804h-20.5396423V58.6438942l-34.2320557,54.3914528c-2.2823944,3.8038406-4.9450378,5.5153885-8.7483826,5.5153885   s-6.4659729-1.7115479-8.7483826-5.5153885l-34.2320557-54.3914528v93.9487915h-20.5396271V28.5959015   C130.8425446,22.1294308,135.5969696,17.5651245,142.0634308,17.5651245z M377.6949463,17.5651245   c6.4659729,0,11.0302734,4.5643063,11.0302734,11.030777v123.9967804h-22.0610657V93.0665665h-64.6607666v59.5261154h-22.0610657   V28.5959015c0-6.4664707,4.5643005-11.030777,11.0302734-11.030777c6.4664612,0,11.0307922,4.5643063,11.0307922,11.030777   v45.4524689h64.6607666V28.5959015C366.6641541,22.1294308,371.2284546,17.5651245,377.6949463,17.5651245z"/>
</g>
</svg>