<svg xmlns="http://www.w3.org/2000/svg" xmlns:xlink="http://www.w3.org/1999/xlink" width="777.357" height="155.771" viewBox="0 0 583.018 116.828">
  <use xlink:href="#a" x="39.72" y="10.44" transform="translate(-6.405 -41.792)"/>
  <use xlink:href="#a" x="39.72" y="36.84" transform="translate(-6.405 -41.792)"/>
  <use xlink:href="#a" x="555.24" y="94.797" transform="translate(-6.405 -41.792)"/>
  <use xlink:href="#a" x="299.395" y="796.56" transform="translate(-6.405 -41.792)"/>
  <use xlink:href="#b" x="39.72" y="820.56" fill="#0d004d" transform="translate(-6.405 -41.792)"/>
  <use xlink:href="#c" x="541.91" y="65.04" transform="translate(-6.405 -41.792)"/>
  <use xlink:href="#d" x="522.36" y="85.08" transform="translate(-6.405 -41.792)"/>
  <path fill="#0d004d" d="M32.56 10.283v.018s2.28 17.384 2.28 47.055c0 29.672-2.28 47.074-2.28 47.055v.019c11.644-12.325 18.78-28.863 18.78-47.074v-.018c0-18.193-7.137-34.749-18.781-47.055" style="stroke-width:4.70918"/>
  <path fill="#0d004d" d="M32.964 41.444c-2.428-9.197-7.008-17.88-13.336-25.753C14.2 9.621 7.616 4.304.148 0 7.375 11.423 12.25 32.78 12.25 57.246S7.395 103.013.166 114.455l-.166.386a81.7 81.7 0 0 0 11.626-8.075c12.325-11.7 20.437-25.754 22.718-41.022.331-2.722.497-5.5.497-8.296 0-5.518-.644-10.871-1.877-16.004m433.244-6.383c-23.196 0-41.665 18.101-41.665 40.893 0 22.791 18.414 40.819 41.592 40.819s41.591-18.046 41.591-40.838c0-22.791-18.34-40.874-41.536-40.874zm-.055 63.353c-13.336 0-21.54-10.32-21.54-22.46s8.222-22.48 21.54-22.48c13.3 0 21.522 10.32 21.522 22.461s-8.222 22.48-21.522 22.48M174.662 35.061c-22.994 0-39.604 18.506-39.623 41.003 0 22.02 15.912 40.764 39.016 40.764 16.648 0 31.824-9.97 37.563-25.496h-20.234c-3.127 4.158-9.271 7.69-17.218 7.69-12.656 0-18.395-9.014-19.058-15.894h57.835c.331-2.207.515-5.887.515-8.443 0-23.84-17.567-39.624-38.796-39.624m-19.517 33.056c0-8.535 8.425-15.433 18.837-15.433 10.393 0 18.818 6.898 18.818 15.433zm392.572-33.056c-19.517 0-35.3 15.728-35.3 35.209v44.571h19.793V70.288c0-10.062 7.174-16.464 15.47-16.464 8.297 0 15.434 6.457 15.416 16.52l-.037 44.497h19.959V70.288c.018-19.48-15.783-35.227-35.3-35.227M360.95 37.545c-2.188-1.012-6.916-2.484-12.342-2.484-15.6 0-21.67 11.976-22.332 13.3V37.048H307.53l-.055 77.775h19.775V63.942c.552-1.049 6.107-10.504 17.604-10.504 4.286 0 8.204 1.325 9.198 1.821zm-101.835-2.484c-23.013 0-41.739 17.899-41.739 41.242 0 21.835 16.409 40.562 38.593 40.525 11.166-.018 19.96-4.801 24.54-11.718v9.731h20.05l-.018-39.917c-.019-22.48-18.745-39.863-41.426-39.863m-.147 63.61c-13.318 0-21.541-10.466-21.541-22.607s8.223-22.626 21.54-22.626c13.319 0 21.542 10.485 21.542 22.626s-8.223 22.608-21.541 22.608m137.688-30.279c-13.153-2.777-18.414-3.936-18.414-8.388 0-5.04 6.733-7.67 13.852-7.67 10.798 0 18.8 6.051 19.683 6.714l9.86-14.422c-5.06-3.385-14.643-9.566-29.727-9.566-20.915 0-33.075 11.884-33.075 25.128 0 13.944 13.466 20.53 28.936 23.785 11.828 2.483 15.452 3.44 15.452 7.597 0 5.684-6.751 7.984-13.613 7.984-10.577 0-19.37-5.464-24.686-11.148l-11.019 14.257c4.6 4.36 16.482 14.146 35.374 14.146s33.848-10.706 33.848-23.988c0-16.059-11.02-21.154-26.471-24.429M102.112 0H63.059l-.019 114.841h19.665l.018-41.389h19.389c22.847 0 38.133-15.728 38.133-36.717S124.959 0 102.112 0m-2.465 54.763H82.723V18.69h16.924c13.484 0 20.547 7.21 20.547 18.045 0 10.817-7.063 18.028-20.547 18.028" style="stroke-width:4.70918"/>
  <use xlink:href="#e" x="112.554" y="133.68" fill="#0d004d" transform="translate(-6.405 -41.792)"/>
  <use xlink:href="#e" x="177.822" y="133.68" fill="#0d004d" transform="translate(-6.405 -41.792)"/>
  <use xlink:href="#e" x="512.046" y="133.68" fill="#0d004d" transform="translate(-6.405 -41.792)"/>
  <use xlink:href="#f" x="65.52" y="154.2" fill="#512eab" transform="translate(-6.405 -41.792)"/>
  <use xlink:href="#f" x="102.595" y="154.2" fill="#512eab" transform="translate(-6.405 -41.792)"/>
  <use xlink:href="#g" x="146.16" y="154.2" transform="translate(-6.405 -41.792)"/>
  <use xlink:href="#h" x="39.72" y="171.48" transform="translate(-6.405 -41.792)"/>
  <use xlink:href="#h" x="204.136" y="192.237" transform="translate(-6.405 -41.792)"/>
  <use xlink:href="#i" x="325.708" y="203.272" transform="translate(-6.405 -41.792)"/>
  <use xlink:href="#i" x="465.045" y="203.272" transform="translate(-6.405 -41.792)"/>
  <use xlink:href="#h" x="501.237" y="203.272" transform="translate(-6.405 -41.792)"/>
  <use xlink:href="#h" x="538.68" y="203.272" transform="translate(-6.405 -41.792)"/>
  <use xlink:href="#h" x="317.188" y="214.188" transform="translate(-6.405 -41.792)"/>
  <use xlink:href="#i" x="351.747" y="214.188" transform="translate(-6.405 -41.792)"/>
  <use xlink:href="#h" x="381.836" y="214.188" transform="translate(-6.405 -41.792)"/>
  <use xlink:href="#h" x="472.577" y="214.188" transform="translate(-6.405 -41.792)"/>
  <use xlink:href="#h" x="528.955" y="214.188" transform="translate(-6.405 -41.792)"/>
  <use xlink:href="#h" x="549.114" y="214.188" transform="translate(-6.405 -41.792)"/>
  <use xlink:href="#i" x="548.687" y="225.224" transform="translate(-6.405 -41.792)"/>
  <use xlink:href="#h" x="278.757" y="236.26" transform="translate(-6.405 -41.792)"/>
  <use xlink:href="#h" x="550.084" y="236.26" transform="translate(-6.405 -41.792)"/>
  <use xlink:href="#h" x="252.595" y="247.176" transform="translate(-6.405 -41.792)"/>
  <use xlink:href="#h" x="526.916" y="247.176" transform="translate(-6.405 -41.792)"/>
  <use xlink:href="#h" x="362.291" y="258.212" transform="translate(-6.405 -41.792)"/>
  <use xlink:href="#h" x="542.67" y="258.212" transform="translate(-6.405 -41.792)"/>
  <use xlink:href="#h" x="178.443" y="269.247" transform="translate(-6.405 -41.792)"/>
  <use xlink:href="#j" x="197.4" y="295.92" fill="#512eab" transform="translate(-6.405 -41.792)"/>
  <use xlink:href="#b" x="39.72" y="311.04" transform="translate(-6.405 -41.792)"/>
  <use xlink:href="#b" x="125.4" y="321.12" transform="translate(-6.405 -41.792)"/>
  <use xlink:href="#k" x="47.042" y="336.36" transform="translate(-6.405 -41.792)"/>
  <use xlink:href="#a" x="71.28" y="336.36" transform="translate(-6.405 -41.792)"/>
  <use xlink:href="#a" x="181.804" y="336.36" transform="translate(-6.405 -41.792)"/>
  <use xlink:href="#a" x="352.94" y="336.36" transform="translate(-6.405 -41.792)"/>
  <use xlink:href="#d" x="523.922" y="336.36" transform="translate(-6.405 -41.792)"/>
  <use xlink:href="#a" x="169.933" y="348.96" transform="translate(-6.405 -41.792)"/>
  <use xlink:href="#a" x="282.26" y="348.96" transform="translate(-6.405 -41.792)"/>
  <use xlink:href="#a" x="325.461" y="348.96" transform="translate(-6.405 -41.792)"/>
  <use xlink:href="#a" x="491.565" y="348.96" transform="translate(-6.405 -41.792)"/>
  <use xlink:href="#d" x="107.88" y="361.56" transform="translate(-6.405 -41.792)"/>
  <use xlink:href="#a" x="109.32" y="361.56" transform="translate(-6.405 -41.792)"/>
  <use xlink:href="#h" x="39.72" y="374.64" fill="#512eab" transform="translate(-6.405 -41.792)"/>
  <use xlink:href="#h" x="197.397" y="384.6" fill="#512eab" transform="translate(-6.405 -41.792)"/>
  <use xlink:href="#k" x="47.04" y="399.48" transform="translate(-6.405 -41.792)"/>
  <use xlink:href="#l" x="122.155" y="399.84" transform="translate(-6.405 -41.792)"/>
  <use xlink:href="#l" x="241.551" y="399.84" transform="translate(-6.405 -41.792)"/>
  <use xlink:href="#a" x="258.96" y="399.84" transform="translate(-6.405 -41.792)"/>
  <use xlink:href="#a" x="464.284" y="399.84" transform="translate(-6.405 -41.792)"/>
  <use xlink:href="#a" x="505.084" y="399.84" transform="translate(-6.405 -41.792)"/>
  <use xlink:href="#l" x="77.52" y="412.44" transform="translate(-6.405 -41.792)"/>
  <use xlink:href="#l" x="116.397" y="412.44" transform="translate(-6.405 -41.792)"/>
  <use xlink:href="#l" x="136.193" y="412.44" transform="translate(-6.405 -41.792)"/>
  <use xlink:href="#l" x="151.433" y="412.44" transform="translate(-6.405 -41.792)"/>
  <use xlink:href="#l" x="160.433" y="412.44" transform="translate(-6.405 -41.792)"/>
  <use xlink:href="#l" x="221.868" y="412.44" transform="translate(-6.405 -41.792)"/>
  <use xlink:href="#l" x="289.425" y="412.44" transform="translate(-6.405 -41.792)"/>
  <use xlink:href="#l" x="328.78" y="412.44" transform="translate(-6.405 -41.792)"/>
  <use xlink:href="#l" x="359.86" y="412.44" transform="translate(-6.405 -41.792)"/>
  <use xlink:href="#l" x="386.736" y="412.44" transform="translate(-6.405 -41.792)"/>
  <use xlink:href="#a" x="525.737" y="412.44" transform="translate(-6.405 -41.792)"/>
  <use xlink:href="#a" x="161.28" y="425.04" transform="translate(-6.405 -41.792)"/>
  <use xlink:href="#a" x="320.88" y="425.04" transform="translate(-6.405 -41.792)"/>
  <use xlink:href="#k" x="56.4" y="443.4" transform="translate(-6.405 -41.792)"/>
  <use xlink:href="#a" x="65.16" y="443.4" transform="translate(-6.405 -41.792)"/>
  <use xlink:href="#l" x="131.166" y="443.4" transform="translate(-6.405 -41.792)"/>
  <use xlink:href="#l" x="157.202" y="443.4" transform="translate(-6.405 -41.792)"/>
  <use xlink:href="#l" x="305.035" y="443.4" transform="translate(-6.405 -41.792)"/>
  <use xlink:href="#l" x="336.106" y="443.4" transform="translate(-6.405 -41.792)"/>
  <use xlink:href="#a" x="397.2" y="443.4" transform="translate(-6.405 -41.792)"/>
  <use xlink:href="#l" x="415.08" y="443.4" transform="translate(-6.405 -41.792)"/>
  <use xlink:href="#l" x="434.876" y="443.4" transform="translate(-6.405 -41.792)"/>
  <use xlink:href="#l" x="105.004" y="468.6" transform="translate(-6.405 -41.792)"/>
  <use xlink:href="#l" x="126.486" y="468.6" transform="translate(-6.405 -41.792)"/>
  <use xlink:href="#l" x="159.485" y="468.6" transform="translate(-6.405 -41.792)"/>
  <use xlink:href="#l" x="204.126" y="468.6" transform="translate(-6.405 -41.792)"/>
  <use xlink:href="#a" x="363.72" y="468.6" transform="translate(-6.405 -41.792)"/>
  <use xlink:href="#a" x="365.4" y="468.6" transform="translate(-6.405 -41.792)"/>
  <use xlink:href="#k" x="53.16" y="486.84" transform="translate(-6.405 -41.792)"/>
  <use xlink:href="#a" x="65.16" y="486.84" transform="translate(-6.405 -41.792)"/>
  <use xlink:href="#l" x="222.846" y="486.84" transform="translate(-6.405 -41.792)"/>
  <use xlink:href="#l" x="293.996" y="486.84" transform="translate(-6.405 -41.792)"/>
  <use xlink:href="#l" x="459.463" y="486.84" transform="translate(-6.405 -41.792)"/>
  <use xlink:href="#l" x="511.538" y="486.84" transform="translate(-6.405 -41.792)"/>
  <use xlink:href="#l" x="108.721" y="499.44" transform="translate(-6.405 -41.792)"/>
  <use xlink:href="#l" x="120.842" y="499.44" transform="translate(-6.405 -41.792)"/>
  <use xlink:href="#l" x="149.401" y="499.44" transform="translate(-6.405 -41.792)"/>
  <use xlink:href="#l" x="197.401" y="499.44" transform="translate(-6.405 -41.792)"/>
  <use xlink:href="#l" x="226.802" y="499.44" transform="translate(-6.405 -41.792)"/>
  <use xlink:href="#l" x="243.363" y="499.44" transform="translate(-6.405 -41.792)"/>
  <use xlink:href="#l" x="291.246" y="499.44" transform="translate(-6.405 -41.792)"/>
  <use xlink:href="#l" x="301.087" y="499.44" transform="translate(-6.405 -41.792)"/>
  <use xlink:href="#l" x="318.607" y="499.44" transform="translate(-6.405 -41.792)"/>
  <use xlink:href="#l" x="356.406" y="499.44" transform="translate(-6.405 -41.792)"/>
  <use xlink:href="#d" x="514.072" y="499.44" transform="translate(-6.405 -41.792)"/>
  <use xlink:href="#a" x="93.72" y="510.84" transform="translate(-6.405 -41.792)"/>
  <use xlink:href="#k" x="53.16" y="528.72" transform="translate(-6.405 -41.792)"/>
  <use xlink:href="#a" x="65.16" y="528.72" transform="translate(-6.405 -41.792)"/>
  <use xlink:href="#l" x="79.2" y="528.72" transform="translate(-6.405 -41.792)"/>
  <use xlink:href="#l" x="177.483" y="528.72" transform="translate(-6.405 -41.792)"/>
  <use xlink:href="#l" x="203.522" y="528.72" transform="translate(-6.405 -41.792)"/>
  <use xlink:href="#l" x="252.364" y="528.72" transform="translate(-6.405 -41.792)"/>
  <use xlink:href="#l" x="267.484" y="528.72" transform="translate(-6.405 -41.792)"/>
  <use xlink:href="#l" x="277.325" y="528.72" transform="translate(-6.405 -41.792)"/>
  <use xlink:href="#l" x="329.046" y="528.72" transform="translate(-6.405 -41.792)"/>
  <use xlink:href="#l" x="358.206" y="528.72" transform="translate(-6.405 -41.792)"/>
  <use xlink:href="#l" x="410.766" y="528.72" transform="translate(-6.405 -41.792)"/>
  <use xlink:href="#l" x="424.446" y="528.72" transform="translate(-6.405 -41.792)"/>
  <use xlink:href="#l" x="461.888" y="528.72" transform="translate(-6.405 -41.792)"/>
  <use xlink:href="#a" x="274.44" y="541.32" transform="translate(-6.405 -41.792)"/>
  <use xlink:href="#a" x="434.04" y="541.32" transform="translate(-6.405 -41.792)"/>
  <use xlink:href="#k" x="53.16" y="559.68" transform="translate(-6.405 -41.792)"/>
  <use xlink:href="#a" x="65.16" y="559.68" transform="translate(-6.405 -41.792)"/>
  <use xlink:href="#l" x="94.325" y="559.68" transform="translate(-6.405 -41.792)"/>
  <use xlink:href="#l" x="114.125" y="559.68" transform="translate(-6.405 -41.792)"/>
  <use xlink:href="#l" x="175.437" y="559.68" transform="translate(-6.405 -41.792)"/>
  <use xlink:href="#l" x="512.287" y="559.68" transform="translate(-6.405 -41.792)"/>
  <use xlink:href="#a" x="103.797" y="572.28" transform="translate(-6.405 -41.792)"/>
  <use xlink:href="#a" x="123.592" y="572.28" transform="translate(-6.405 -41.792)"/>
  <use xlink:href="#a" x="256.56" y="572.28" transform="translate(-6.405 -41.792)"/>
  <use xlink:href="#a" x="416.16" y="572.28" transform="translate(-6.405 -41.792)"/>
  <use xlink:href="#k" x="53.16" y="590.52" transform="translate(-6.405 -41.792)"/>
  <use xlink:href="#a" x="65.16" y="590.52" transform="translate(-6.405 -41.792)"/>
  <use xlink:href="#l" x="113.879" y="590.52" transform="translate(-6.405 -41.792)"/>
  <use xlink:href="#l" x="162.481" y="590.52" transform="translate(-6.405 -41.792)"/>
  <use xlink:href="#l" x="190.562" y="590.52" transform="translate(-6.405 -41.792)"/>
  <use xlink:href="#l" x="239.402" y="590.52" transform="translate(-6.405 -41.792)"/>
  <use xlink:href="#l" x="256.322" y="590.52" transform="translate(-6.405 -41.792)"/>
  <use xlink:href="#l" x="266.043" y="590.52" transform="translate(-6.405 -41.792)"/>
  <use xlink:href="#l" x="317.765" y="590.52" transform="translate(-6.405 -41.792)"/>
  <use xlink:href="#l" x="346.925" y="590.52" transform="translate(-6.405 -41.792)"/>
  <use xlink:href="#l" x="367.205" y="590.52" transform="translate(-6.405 -41.792)"/>
  <use xlink:href="#l" x="379.325" y="590.52" transform="translate(-6.405 -41.792)"/>
  <use xlink:href="#l" x="428.045" y="590.52" transform="translate(-6.405 -41.792)"/>
  <use xlink:href="#l" x="471.365" y="590.52" transform="translate(-6.405 -41.792)"/>
  <use xlink:href="#l" x="485.405" y="590.52" transform="translate(-6.405 -41.792)"/>
  <use xlink:href="#l" x="511.446" y="590.52" transform="translate(-6.405 -41.792)"/>
  <use xlink:href="#l" x="107.637" y="603.12" transform="translate(-6.405 -41.792)"/>
  <use xlink:href="#l" x="127.433" y="603.12" transform="translate(-6.405 -41.792)"/>
  <use xlink:href="#l" x="150.714" y="603.12" transform="translate(-6.405 -41.792)"/>
  <use xlink:href="#l" x="190.19" y="603.12" transform="translate(-6.405 -41.792)"/>
  <use xlink:href="#l" x="209.987" y="603.12" transform="translate(-6.405 -41.792)"/>
  <use xlink:href="#l" x="247.423" y="603.12" transform="translate(-6.405 -41.792)"/>
  <use xlink:href="#l" x="286.663" y="603.12" transform="translate(-6.405 -41.792)"/>
  <use xlink:href="#l" x="317.862" y="603.12" transform="translate(-6.405 -41.792)"/>
  <use xlink:href="#l" x="331.542" y="603.12" transform="translate(-6.405 -41.792)"/>
  <use xlink:href="#l" x="391.413" y="603.12" transform="translate(-6.405 -41.792)"/>
  <use xlink:href="#l" x="408.333" y="603.12" transform="translate(-6.405 -41.792)"/>
  <use xlink:href="#l" x="460.523" y="603.12" transform="translate(-6.405 -41.792)"/>
  <use xlink:href="#l" x="489.803" y="603.12" transform="translate(-6.405 -41.792)"/>
  <use xlink:href="#l" x="509.96" y="603.12" transform="translate(-6.405 -41.792)"/>
  <use xlink:href="#l" x="522.079" y="603.12" transform="translate(-6.405 -41.792)"/>
  <use xlink:href="#l" x="90.479" y="615.72" transform="translate(-6.405 -41.792)"/>
  <use xlink:href="#l" x="115.08" y="615.72" transform="translate(-6.405 -41.792)"/>
  <use xlink:href="#l" x="143.047" y="615.72" transform="translate(-6.405 -41.792)"/>
  <use xlink:href="#l" x="206.29" y="615.72" transform="translate(-6.405 -41.792)"/>
  <use xlink:href="#a" x="267.72" y="615.72" transform="translate(-6.405 -41.792)"/>
  <use xlink:href="#a" x="427.32" y="615.72" transform="translate(-6.405 -41.792)"/>
  <use xlink:href="#k" x="47.04" y="633.72" transform="translate(-6.405 -41.792)"/>
  <use xlink:href="#l" x="220.57" y="634.08" transform="translate(-6.405 -41.792)"/>
  <use xlink:href="#l" x="471.493" y="634.08" transform="translate(-6.405 -41.792)"/>
  <use xlink:href="#a" x="90.117" y="646.68" transform="translate(-6.405 -41.792)"/>
  <use xlink:href="#a" x="244.205" y="646.68" transform="translate(-6.405 -41.792)"/>
  <use xlink:href="#a" x="269.401" y="646.68" transform="translate(-6.405 -41.792)"/>
  <use xlink:href="#a" x="429.12" y="646.68" transform="translate(-6.405 -41.792)"/>
  <use xlink:href="#k" x="47.04" y="664.56" transform="translate(-6.405 -41.792)"/>
  <use xlink:href="#a" x="163.2" y="664.92" transform="translate(-6.405 -41.792)"/>
  <use xlink:href="#a" x="234.6" y="664.92" transform="translate(-6.405 -41.792)"/>
  <use xlink:href="#a" x="316.55" y="664.92" transform="translate(-6.405 -41.792)"/>
  <use xlink:href="#a" x="376.809" y="664.92" transform="translate(-6.405 -41.792)"/>
  <use xlink:href="#a" x="398.41" y="664.92" transform="translate(-6.405 -41.792)"/>
  <use xlink:href="#a" x="504.859" y="664.92" transform="translate(-6.405 -41.792)"/>
  <use xlink:href="#d" x="213.24" y="675.36" transform="translate(-6.405 -41.792)"/>
  <use xlink:href="#j" x="214.56" y="675.36" fill="#512eab" transform="translate(-6.405 -41.792)"/>
  <use xlink:href="#k" x="53.156" y="693.36" transform="translate(-6.405 -41.792)"/>
  <use xlink:href="#a" x="65.16" y="693.36" transform="translate(-6.405 -41.792)"/>
  <use xlink:href="#l" x="113.88" y="693.36" transform="translate(-6.405 -41.792)"/>
  <use xlink:href="#l" x="162.481" y="693.36" transform="translate(-6.405 -41.792)"/>
  <use xlink:href="#l" x="190.561" y="693.36" transform="translate(-6.405 -41.792)"/>
  <use xlink:href="#l" x="239.402" y="693.36" transform="translate(-6.405 -41.792)"/>
  <use xlink:href="#l" x="249.123" y="693.36" transform="translate(-6.405 -41.792)"/>
  <use xlink:href="#l" x="300.844" y="693.36" transform="translate(-6.405 -41.792)"/>
  <use xlink:href="#l" x="330.005" y="693.36" transform="translate(-6.405 -41.792)"/>
  <use xlink:href="#l" x="361.205" y="693.36" transform="translate(-6.405 -41.792)"/>
  <use xlink:href="#l" x="374.885" y="693.36" transform="translate(-6.405 -41.792)"/>
  <use xlink:href="#l" x="398.045" y="693.36" transform="translate(-6.405 -41.792)"/>
  <use xlink:href="#l" x="435.606" y="693.36" transform="translate(-6.405 -41.792)"/>
  <use xlink:href="#l" x="474.847" y="693.36" transform="translate(-6.405 -41.792)"/>
  <use xlink:href="#l" x="506.047" y="693.36" transform="translate(-6.405 -41.792)"/>
  <use xlink:href="#l" x="519.727" y="693.36" transform="translate(-6.405 -41.792)"/>
  <use xlink:href="#l" x="160.31" y="705.96" transform="translate(-6.405 -41.792)"/>
  <use xlink:href="#l" x="216.115" y="705.96" transform="translate(-6.405 -41.792)"/>
  <use xlink:href="#l" x="355.446" y="705.96" transform="translate(-6.405 -41.792)"/>
  <use xlink:href="#l" x="387.845" y="705.96" transform="translate(-6.405 -41.792)"/>
  <use xlink:href="#l" x="406.565" y="705.96" transform="translate(-6.405 -41.792)"/>
  <use xlink:href="#l" x="494.88" y="705.96" transform="translate(-6.405 -41.792)"/>
  <use xlink:href="#l" x="127.688" y="718.56" transform="translate(-6.405 -41.792)"/>
  <use xlink:href="#d" x="236.88" y="718.56" transform="translate(-6.405 -41.792)"/>
  <use xlink:href="#j" x="396.12" y="718.56" fill="#512eab" transform="translate(-6.405 -41.792)"/>
  <use xlink:href="#k" x="47.04" y="736.44" transform="translate(-6.405 -41.792)"/>
  <use xlink:href="#l" x="89.161" y="736.8" transform="translate(-6.405 -41.792)"/>
  <use xlink:href="#l" x="138.362" y="736.8" transform="translate(-6.405 -41.792)"/>
  <use xlink:href="#l" x="181.082" y="736.8" transform="translate(-6.405 -41.792)"/>
  <use xlink:href="#l" x="207.003" y="736.8" transform="translate(-6.405 -41.792)"/>
  <use xlink:href="#l" x="255.964" y="736.8" transform="translate(-6.405 -41.792)"/>
  <use xlink:href="#l" x="274.804" y="736.8" transform="translate(-6.405 -41.792)"/>
  <use xlink:href="#a" x="386.51" y="736.8" transform="translate(-6.405 -41.792)"/>
  <use xlink:href="#a" x="406.676" y="736.8" transform="translate(-6.405 -41.792)"/>
  <use xlink:href="#a" x="451.796" y="736.8" transform="translate(-6.405 -41.792)"/>
  <use xlink:href="#l" x="123.362" y="749.4" transform="translate(-6.405 -41.792)"/>
  <use xlink:href="#l" x="156.244" y="749.4" transform="translate(-6.405 -41.792)"/>
  <use xlink:href="#l" x="192.124" y="749.4" transform="translate(-6.405 -41.792)"/>
  <use xlink:href="#l" x="201.845" y="749.4" transform="translate(-6.405 -41.792)"/>
  <use xlink:href="#l" x="241.204" y="749.4" transform="translate(-6.405 -41.792)"/>
  <use xlink:href="#l" x="280.447" y="749.4" transform="translate(-6.405 -41.792)"/>
  <use xlink:href="#l" x="311.527" y="749.4" transform="translate(-6.405 -41.792)"/>
  <use xlink:href="#l" x="325.327" y="749.4" transform="translate(-6.405 -41.792)"/>
  <use xlink:href="#l" x="332.647" y="749.4" transform="translate(-6.405 -41.792)"/>
  <use xlink:href="#l" x="358.687" y="749.4" transform="translate(-6.405 -41.792)"/>
  <use xlink:href="#l" x="395.769" y="749.4" transform="translate(-6.405 -41.792)"/>
  <use xlink:href="#l" x="405.49" y="749.4" transform="translate(-6.405 -41.792)"/>
  <use xlink:href="#l" x="424.93" y="749.4" transform="translate(-6.405 -41.792)"/>
  <use xlink:href="#l" x="452.531" y="749.4" transform="translate(-6.405 -41.792)"/>
  <use xlink:href="#l" x="487.931" y="749.4" transform="translate(-6.405 -41.792)"/>
</svg>
