<?xml version="1.0" encoding="ISO-8859-1"?>
<!-- Generator: Adobe Illustrator 13.0.0, SVG Export Plug-In . SVG Version: 6.00 Build 14948)  -->
<!DOCTYPE svg PUBLIC "-//W3C//DTD SVG 1.1//EN" "http://www.w3.org/Graphics/SVG/1.1/DTD/svg11.dtd">
<svg version="1.1" id="Layer_1" xmlns="http://www.w3.org/2000/svg" xmlns:xlink="http://www.w3.org/1999/xlink" x="0px" y="0px" width="300px" height="36px" viewBox="0 0 300 36" style="" xml:space="preserve">
<g>
	<rect y="-0.005" style="fill: rgb(230, 0, 13);" width="300" height="36.005"/>
	<path style="fill: rgb(255, 255, 255);" d="M22.166,12.712l-0.18,13.234c0,0.389-0.245,0.335-0.565,0.06c-0.419-0.359-2.212-2.182-4.005-2.721   c-1.808-0.539-1.997-0.503-3.854-0.509c-1.789-0.005-3.375-0.118-3.585-0.208c-0.208-0.089-0.507-0.118-0.448-0.837l1.853-13.023   c0.088-0.572-0.059-0.869,0.896-0.632c0.954,0.238,3.495,0.206,3.972,0.238c0.778,0.064,2.361,0.451,3.467,1.408   C20.822,10.677,22.166,11.873,22.166,12.712"/>
	<path style="fill: rgb(255, 255, 255);" d="M22.854,12.712l-0.061,12.486c0,0.595,0.299,0.716,0.658,0.238c0.442-0.592,1.026-1.081,1.704-1.402   c2.39-1.137,5.675-1.376,6.092-1.406c0.42-0.029,2.57-0.208,2.869-0.299c0.724-0.217,0.918-0.012,0.776-1.464L33.22,8.171   c-0.06-0.57-0.181-0.541-0.541-0.453c-0.355,0.092-0.257,0.094-1.942,0.391c-0.802,0.143-1.904,0.027-3.193,0.421   c-1.25,0.376-2.226,1.049-3.319,2.029C23.815,10.925,22.913,11.635,22.854,12.712"/>
	<path style="fill: rgb(255, 255, 255);" d="M58.706,8.441c0.32-0.138,0.488-0.247,0.523,0.159c0.048,0.6,0.27,3.389,0.289,3.643   c0.017,0.274-0.074,0.3-0.255,0.126c-0.431-0.415-1.892-1.976-4.091-2.573c-1.617-0.442-2.961-0.345-3.916-0.103   c-1.15,0.297-1.828,0.88-2.228,1.445c-0.624,0.881-0.483,2.017,0.158,2.681c0.711,0.734,2.143,0.981,3.513,1.188   c1.292,0.197,3.754,0.523,4.978,0.965c1.053,0.381,2.01,1.158,2.594,2.006c0.808,1.177,0.771,3.245-0.136,4.484   c-0.997,1.361-2.249,2.114-3.692,2.504c-2.042,0.554-4.237,0.437-6.241-0.122c-1.762-0.488-3.207-0.845-4.331-0.216   c-0.231,0.132-0.296,0.103-0.316-0.2c-0.021-0.321-0.222-3.486-0.232-4.068c-0.003-0.2,0.129-0.151,0.202-0.068   c0.617,0.689,2.548,2.068,4.677,2.768c1.802,0.59,3.364,0.783,5.433,0.219c0.957-0.262,1.7-1.013,1.944-1.443   c0.374-0.654,0.366-1.724-0.158-2.325c-0.351-0.399-0.842-1.017-4.895-1.591c-4.235-0.597-5.408-1.637-6.216-2.859   c-0.991-1.512-0.842-3.23-0.109-4.472c0.784-1.321,1.956-1.958,2.972-2.362c1.334-0.525,3.364-0.705,5.556-0.322   C56.908,8.286,57.733,8.864,58.706,8.441"/>
	<path style="fill: rgb(255, 255, 255);" d="M86.242,9.372c-0.037-0.243-0.096-0.275-0.336-0.404c-0.404-0.22-1.922-0.721-2.766-0.883   c-1.962-0.367-4.111-0.416-6.167,0.177c-1.927,0.546-3.881,1.364-5.799,4.13c-1.431,2.071-1.75,5.595-0.109,8.128   c1.588,2.452,3.786,3.627,5.714,4.27c1.872,0.626,4.649,0.709,6.949,0.147c0.96-0.235,2.105-0.65,2.472-0.843   c0.252-0.134,0.288-0.134,0.342-0.421c0.096-0.478,0.418-2.214,0.54-2.859c0.045-0.248-0.084-0.294-0.263-0.111   c-0.809,0.803-2.113,1.643-3.433,2.16c-1.696,0.668-3.953,0.986-6.069-0.067c-2.216-1.102-2.986-2.583-3.402-3.305   c-0.699-1.209-1.234-4.11,0.368-6.658c1.048-1.661,2.325-2.296,3.42-2.769c1.438-0.62,3.525-0.732,5.192-0.091   c1.053,0.401,2.494,1.204,3.337,2.206c0.122,0.143,0.313,0.14,0.287-0.127C86.477,11.667,86.242,9.372,86.242,9.372"/>
	<path style="fill: rgb(255, 255, 255);" d="M112.441,16.706h-11.255v0.03v5.476c0,0.662,0.131,2.013,1.513,2.527   c0.142,0.05,0.131,0.191-0.021,0.191h-2.555h-0.809h-2.559c-0.151,0-0.162-0.142-0.02-0.191c1.383-0.515,1.517-1.865,1.517-2.527   V10.855c0-0.659-0.134-2.009-1.517-2.521c-0.142-0.053-0.131-0.193,0.02-0.193h2.559h0.809h2.555c0.152,0,0.163,0.141,0.021,0.193   c-1.382,0.512-1.513,1.861-1.513,2.521v4.255v0.032h11.255V15.11v-4.255c0-0.659-0.131-2.009-1.513-2.521   c-0.142-0.053-0.132-0.193,0.021-0.193h2.557h0.807h2.559c0.155,0,0.163,0.141,0.021,0.193c-1.383,0.512-1.512,1.861-1.512,2.521   v11.356c0,0.662,0.129,2.013,1.512,2.527c0.142,0.05,0.134,0.191-0.021,0.191h-2.56h-0.806h-2.557   c-0.153,0-0.162-0.142-0.021-0.191c1.382-0.515,1.513-1.865,1.513-2.527v-5.476"/>
	<path style="fill: rgb(255, 255, 255);" d="M161.225,23.419v-12.54c0-0.828,0.215-1.911,1.705-2.49c0.143-0.054,0.125-0.226-0.029-0.226H160.1   h-0.807h-2.557c-0.156,0-0.166,0.14-0.023,0.191c1.385,0.511,1.516,1.863,1.516,2.524v11.355c0,0.661-0.131,2.049-1.516,2.559   c-0.143,0.052-0.133,0.192,0.023,0.192h2.557h0.807h6.828c0.895,0,1.748,0.213,2.398,0.595c0.104,0.062,0.197,0.086,0.27-0.092   c0.168-0.43,1.15-2.887,1.313-3.332c0.064-0.171-0.039-0.275-0.205-0.131c-0.162,0.142-1.576,1.396-3.654,1.396   C164.969,23.422,161.225,23.419,161.225,23.419"/>
	<path style="fill: rgb(255, 255, 255);" d="M221.334,8.473c0.32-0.143,0.492-0.25,0.527,0.157c0.047,0.6,0.268,3.386,0.281,3.645   c0.02,0.271-0.07,0.3-0.25,0.123c-0.432-0.414-1.895-1.978-4.092-2.574c-1.619-0.44-2.963-0.341-3.916-0.1   c-1.152,0.295-1.826,0.878-2.227,1.445c-0.625,0.88-0.488,2.014,0.16,2.68c0.707,0.732,2.139,0.978,3.51,1.187   c1.291,0.199,3.756,0.526,4.982,0.966c1.051,0.381,2.006,1.156,2.592,2.008c0.807,1.176,0.77,3.24-0.137,4.481   c-0.998,1.363-2.248,2.114-3.693,2.507c-2.043,0.551-4.234,0.432-6.238-0.125c-1.766-0.491-3.209-0.845-4.33-0.213   c-0.234,0.13-0.299,0.1-0.318-0.2c-0.021-0.321-0.221-3.488-0.234-4.071c-0.004-0.195,0.129-0.151,0.201-0.07   c0.617,0.693,2.551,2.073,4.682,2.77c1.803,0.591,3.363,0.784,5.43,0.222c0.961-0.262,1.701-1.018,1.949-1.445   c0.367-0.652,0.365-1.725-0.162-2.324c-0.35-0.4-0.84-1.018-4.893-1.59c-4.236-0.6-5.408-1.637-6.215-2.865   c-0.996-1.508-0.844-3.227-0.111-4.465c0.781-1.324,1.957-1.96,2.973-2.361c1.332-0.526,3.367-0.71,5.553-0.327   C219.541,8.313,220.363,8.892,221.334,8.473"/>
	<path style="fill: rgb(255, 255, 255);" d="M239.023,9.899h-4.379c-0.906,0-1.443-0.014-2.502,0.539c-0.27,0.141-0.293-0.04-0.166-0.201   c0.514-0.656,1.594-2.021,2.117-2.712l0.281-0.023c0.244,0.198,0.922,0.634,1.936,0.634h10.324c0.904,0,2.021-0.104,3.098-0.465   c0.133-0.041,0.289-0.014,0.145,0.182c-0.434,0.597-1.529,2.047-1.945,2.586c-0.148,0.189-0.227,0.079-0.316,0.022   c-0.199-0.119-0.59-0.562-1.936-0.562h-3.719v12.359c0,0.66,0.131,2.011,1.51,2.521c0.145,0.052,0.135,0.194-0.016,0.194h-2.559   h-0.809h-2.555c-0.152,0-0.164-0.143-0.021-0.194c1.383-0.511,1.512-1.861,1.512-2.521"/>
	<path style="fill: rgb(255, 255, 255);" d="M263.248,10.906c0-0.664,0.131-2.015,1.512-2.525c0.143-0.049,0.133-0.19-0.021-0.19h-2.559h-0.807   h-2.557c-0.15,0-0.16,0.142-0.021,0.19c1.383,0.511,1.514,1.861,1.514,2.525v11.355c0,0.661-0.131,2.012-1.514,2.524   c-0.139,0.049-0.129,0.19,0.021,0.19h2.557h0.807h2.559c0.154,0,0.164-0.142,0.021-0.19c-1.381-0.513-1.512-1.863-1.512-2.525"/>
	<path style="fill: rgb(255, 255, 255);" d="M290.5,9.372c-0.039-0.243-0.096-0.275-0.338-0.404c-0.402-0.22-1.92-0.721-2.762-0.883   c-1.963-0.367-4.111-0.416-6.166,0.177c-1.928,0.546-3.889,1.364-5.803,4.13c-1.432,2.071-1.75,5.595-0.109,8.128   c1.588,2.452,3.787,3.627,5.713,4.27c1.873,0.626,4.65,0.709,6.951,0.147c0.959-0.235,2.102-0.65,2.469-0.843   c0.252-0.134,0.287-0.134,0.344-0.421c0.096-0.478,0.416-2.214,0.537-2.859c0.047-0.248-0.082-0.294-0.26-0.111   c-0.809,0.803-2.111,1.643-3.434,2.16c-1.695,0.668-3.951,0.986-6.066-0.067c-2.221-1.102-2.988-2.583-3.404-3.305   c-0.693-1.209-1.232-4.11,0.367-6.658c1.047-1.661,2.328-2.296,3.418-2.769c1.441-0.62,3.527-0.732,5.195-0.091   c1.053,0.401,2.496,1.204,3.338,2.206c0.121,0.143,0.313,0.14,0.285-0.127C290.736,11.667,290.5,9.372,290.5,9.372"/>
	<path style="fill: rgb(255, 255, 255);" d="M136.77,25.29c0.977,0,4.588-0.072,7.244-2.312c2.556-2.157,3.144-4.623,3.144-6.328v-0.122   c0-1.704-0.588-4.172-3.144-6.326c-2.655-2.236-6.267-2.313-7.244-2.313h-0.221c-0.979,0-4.589,0.076-7.244,2.313   c-2.556,2.154-3.144,4.622-3.144,6.326v0.122c0,1.705,0.588,4.171,3.144,6.328c2.654,2.239,6.264,2.312,7.244,2.312"/>
	<path style="fill: rgb(255, 255, 255);" d="M186.506,8.144h3.008c0,0,8.098,14.058,8.563,14.863c0.467,0.809,1.143,1.474,1.809,1.703   c0.178,0.06,0.174,0.263-0.023,0.263h-5.223c-0.209,0-0.18-0.177-0.031-0.251c0.146-0.074,0.879-0.449,0.336-1.419   c-0.344-0.613-1.615-2.864-1.615-2.864h-10.693c0,0-1.369,2.376-1.641,2.887c-0.176,0.337-0.254,1.051,0.279,1.385   c0.152,0.093,0.174,0.256-0.01,0.256h-3.84c-0.176,0-0.295-0.159-0.021-0.272c0.324-0.14,0.998-0.437,1.904-1.979   c0.904-1.542,7.078-12.341,7.322-12.881c0.238-0.528,0.369-1.059-0.184-1.552"/>
	<path style="fill: rgb(230, 0, 13);" d="M136.759,23.505c1.443,0,3.522-0.565,4.992-2.107c1.466-1.542,1.958-3.376,1.958-4.747v-0.122   c0-1.367-0.491-3.206-1.958-4.747c-1.469-1.54-3.548-2.104-4.992-2.104h-0.198c-1.443,0-3.522,0.564-4.993,2.104   c-1.466,1.541-1.958,3.38-1.958,4.747v0.122c0,1.371,0.491,3.205,1.958,4.747c1.471,1.542,3.55,2.107,4.993,2.107"/>
	<polyline style="fill: rgb(230, 0, 13);" points="188.094,10.839 192.49,18.854 183.514,18.854"/>
</g>
</svg>