<?xml version="1.0" encoding="utf-8"?>
<!-- Generator: Adobe Illustrator 23.0.2, SVG Export Plug-In . SVG Version: 6.00 Build 0)  -->
<svg version="1.1" id="Layer_1" xmlns="http://www.w3.org/2000/svg" xmlns:xlink="http://www.w3.org/1999/xlink" x="0px" y="0px"
	 viewBox="0 0 511.26 101.34" style="enable-background:new 0 0 511.26 101.34;" xml:space="preserve">
<style type="text/css">
	.st0{fill:#E51D35;}
	.st1{fill:#1E3343;}
</style>
<g>
	<path class="st0" d="M109.64,79.19c-0.17-1-2.14-2.69-2.44-2.9c-2.22-1.7-4.99-3.16-8.22-4.34c4.14-2.92,7.98-6.82,9.21-12.35
		c0.58-2.6,0.11-4.98-1.4-7.06c-4.47-6.16-16.58-8.09-19.97-8.52c1.07-0.47,2.11-0.9,3.13-1.32c4.35-1.81,8.45-3.52,13.57-7.14
		c3.51-2.48,5.45-5.4,5.34-8.02c-0.07-1.56-0.87-2.87-2.26-3.68c-5.87-3.42-24.23,0.38-26.74,0.93c-0.06-0.52-0.17-1.16-0.7-1.57
		c-0.45-0.35-1.1-0.45-1.98-0.3c-1.67,0.32-2.57,2.8-2.74,3.32l-1.13,0.65c-1.23,0.64-2.1,1.93-2.33,3.45
		c-0.12,0.64-0.01,1.2,0.32,1.65c0.49,0.66,1.32,0.91,1.74,1c-0.65,2.7-4.2,17.1-4.24,17.26c-0.13,0.63-2.03,10.15-3.24,18.44
		c-2.31,0.19-4.61,0.44-6.86,0.78c-6.78,0.92-19.9,4.37-22.57,5.08c1.76-3.68,10.13-16.77,13.26-21.21
		c11.1-15.83,16.34-20.88,18.31-22.78c0.58-0.56,0.87-0.84,1.01-1.12c0.32-1.11,0.13-2.71-1.4-3.56
		c-1.41-0.94-22.73,2.66-31.17,6.57c-3.81,1.77-5.48,2.98-5.76,4.18c-0.19,0.8,0.28,1.51,0.75,2.1c0.61,0.73,1.27,1.13,1.97,1.19
		c1.21,0.09,2.29-0.83,3.16-1.57c0.15-0.13,0.29-0.25,0.44-0.38c3.34-3.14,19.93-6.05,23.48-6.64c-4.71,5.2-9.57,12.03-12.82,16.6
		c-0.62,0.87-1.18,1.65-1.67,2.34c-4.53,6.44-8.57,13.17-11.82,18.58c-2.17,3.61-3.88,6.47-5.1,8.17c-0.59,0.82-0.48,2.1,0.25,2.98
		c0.59,0.7,1.45,1.05,2.48,1.05c0.87,0,1.85-0.25,2.9-0.76c2.92-1.38,15.57-5.08,22.88-6.27c2.32-0.4,4.93-0.74,7.7-0.99
		c-0.36,3.07-0.54,5.62-0.35,6.96c0.22,1.55,2.23,1.76,3.64,1.76c0.32,0,0.61-0.01,0.84-0.02l0.2-0.01
		c8.51-0.25,15.94-2.03,22.08-5.28c1.16-0.62,2.45-1.3,3.77-2.06c3.86,0.91,7.23,2.19,9.73,3.92c0.03,0.02,0.06,0.03,0.09,0.04
		c0.22,0.04,0.68,0.32,1.17,0.61c1.23,0.73,2.77,1.63,3.39,0.77C109.64,79.57,109.67,79.39,109.64,79.19z M103.77,29.48
		c-0.29,2.16-5.1,5.03-15.14,9.01c-4.84,1.92-12.15,5.01-13.94,5.77c0.39-2.1,2.19-11.29,3.96-13.24
		c1.86-2.15,14.13-4.03,20.42-4.03c1.78,0,3.08,0.15,3.53,0.49C103.48,28.13,103.86,28.79,103.77,29.48z M70.93,72.62
		c5.72-0.25,11.78-0.11,17.37,0.57c-1.29,0.57-2.47,0.98-3.42,1.18c-0.14,0.03-0.41,0.11-0.79,0.23c-2.18,0.66-7.92,2.39-13.13,1.93
		C70.89,75.38,70.88,74.05,70.93,72.62z M86.24,48.69c14.77,1.64,17.14,7.23,17.48,9.56c0.55,3.85-4.69,8.7-10.11,12.1
		c-2.81-0.68-5.86-1.2-9.13-1.54c-4.22-0.44-8.73-0.58-13.29-0.44c0.67-8.04,2.28-17.22,2.5-18.44
		C77.06,48.77,83.49,48.38,86.24,48.69z"/>
	<g>
		<path class="st1" d="M162.45,66.04v7.39h-34.54l20.96-36.14h-17.74v-7.39h32.45l-20.9,36.14H162.45z"/>
		<path class="st1" d="M197.61,73.43h-8.71v-2.6h-0.13c-1.89,2.25-5.18,3.52-8.4,3.52c-9.09,0-14.27-7.56-14.27-15.24
			c0-7.5,5.24-14.95,14.14-14.95c3.22,0,6.5,1.27,8.65,3.58v-2.66h8.71V73.43z M189.78,59.23c0-3.81-2.84-7.91-7.39-7.91
			c-4.55,0-7.32,4.1-7.32,7.91c0,3.81,2.78,7.97,7.32,7.97C186.94,67.2,189.78,63.04,189.78,59.23z"/>
		<path class="st1" d="M214.09,47.69h0.13c1.83-2.54,4.92-3.52,8.08-3.52c8.33,0,10.73,5.37,10.73,11.95v17.32h-8.84V58.42
			c0-3.41,0.19-7.79-4.8-7.79c-5.24,0-5.3,5.37-5.3,8.77v14.03h-8.84V45.09h8.84V47.69z"/>
		<path class="st1" d="M246.92,60.56c0,3.58,1.52,7.62,6.12,7.62c2.9,0,4.74-1.62,5.94-3.87l8.14,1.21
			c-2.15,5.66-7.58,8.83-14.08,8.83c-9.6,0-15.47-6.23-15.47-14.83c0-8.6,4.99-15.35,15.03-15.35c10.17,0,14.71,6.87,14.71,15.41
			v0.98H246.92z M258.98,55.54c-0.44-2.89-2.46-5.71-5.87-5.71c-3.54,0-5.49,2.77-5.94,5.71H258.98z"/>
		<path class="st1" d="M281.52,48.03h0.13c1.77-2.48,4.42-3.87,7.7-3.87c1.26,0,2.53,0.29,3.66,0.69l-1.07,7.5
			c-1.07-0.69-2.34-1.04-3.66-1.04c-6.12,0-6.76,4.96-6.76,9.35v12.76h-8.84V45.09h8.84V48.03z"/>
		<path class="st1" d="M313.34,51.61v6.64h-15.41v-6.64H313.34z"/>
		<path class="st1" d="M320.73,29.91h11.55c8.84,0,14.27,3.17,14.27,11.83c0,3.12-1.2,6.7-4.17,8.43c5.62,0.92,8.14,6.12,8.14,10.91
			c0,8.54-6.57,12.35-15.22,12.35h-14.59V29.91z M330.01,48.03h1.14c4.55,0,6.76-1.21,6.76-5.71c0-4.44-2.78-5.6-6.69-5.6h-1.2
			V48.03z M330.01,66.62h1.96c4.99,0,9.28-0.58,9.28-6.23s-5.05-5.89-9.72-5.89h-1.52V66.62z"/>
		<path class="st1" d="M365.5,73.43h-8.84V29.91h8.84V73.43z"/>
		<path class="st1" d="M403.44,59.29c0,8.77-6.57,15.07-16.29,15.07s-16.29-6.29-16.29-15.07c0-8.83,6.63-15.12,16.29-15.12
			C396.81,44.16,403.44,50.46,403.44,59.29z M379.83,59.29c0,3.81,2.78,7.91,7.32,7.91c4.55,0,7.32-4.1,7.32-7.91
			c0-3.93-2.78-7.97-7.32-7.97C382.61,51.32,379.83,55.36,379.83,59.29z"/>
		<path class="st1" d="M423.96,51.78c-1.26-1.1-2.9-1.96-4.67-1.96c-1.45,0-2.9,1.04-2.9,2.42c0,2.08,3.22,2.66,6.38,3.93
			c3.22,1.27,6.38,3.23,6.38,8.14c0,6.29-5.56,10.04-12.06,10.04c-4.17,0-8.21-1.73-10.92-4.73l4.04-4.79
			c1.7,1.73,3.98,3.29,6.57,3.29c1.96,0,3.54-1.21,3.54-3.06c0-2.48-3.09-3.06-6.19-4.27c-3.09-1.21-6.19-2.89-6.19-7.45
			c0-5.31,4.04-9.18,9.85-9.18c3.28,0,7.45,0.92,9.98,2.94L423.96,51.78z"/>
		<path class="st1" d="M442.34,60.56c0,3.58,1.52,7.62,6.12,7.62c2.9,0,4.74-1.62,5.94-3.87l8.14,1.21
			c-2.15,5.66-7.58,8.83-14.08,8.83c-9.6,0-15.47-6.23-15.47-14.83c0-8.6,4.99-15.35,15.03-15.35c10.17,0,14.71,6.87,14.71,15.41
			v0.98H442.34z M454.39,55.54c-0.44-2.89-2.46-5.71-5.87-5.71c-3.54,0-5.49,2.77-5.94,5.71H454.39z"/>
		<path class="st1" d="M476.94,48.03h0.13c1.77-2.48,4.42-3.87,7.7-3.87c1.26,0,2.53,0.29,3.66,0.69l-1.07,7.5
			c-1.07-0.69-2.34-1.04-3.66-1.04c-6.12,0-6.76,4.96-6.76,9.35v12.76h-8.84V45.09h8.84V48.03z"/>
	</g>
</g>
</svg>
